<?xml version="1.0" encoding="UTF-8" standalone="no"?>
<!-- Created with Inkscape (http://www.inkscape.org/) -->

<svg
   xmlns:dc="http://purl.org/dc/elements/1.1/"
   xmlns:cc="http://creativecommons.org/ns#"
   xmlns:rdf="http://www.w3.org/1999/02/22-rdf-syntax-ns#"
   xmlns:svg="http://www.w3.org/2000/svg"
   xmlns="http://www.w3.org/2000/svg"
   xmlns:sodipodi="http://sodipodi.sourceforge.net/DTD/sodipodi-0.dtd"
   xmlns:inkscape="http://www.inkscape.org/namespaces/inkscape"
   width="210mm"
   height="297mm"
   viewBox="0 0 744.09448819 1052.3622047"
   id="svg2"
   version="1.1"
   inkscape:version="0.91 r13725"
   sodipodi:docname="d-chan.svg">
  <defs
     id="defs4" />
  <sodipodi:namedview
     id="base"
     pagecolor="#ffffff"
     bordercolor="#666666"
     borderopacity="1.0"
     inkscape:pageopacity="0.0"
     inkscape:pageshadow="2"
     inkscape:zoom="1.4"
     inkscape:cx="129.69195"
     inkscape:cy="795.96494"
     inkscape:document-units="px"
     inkscape:current-layer="layer1"
     showgrid="false"
     inkscape:window-width="1920"
     inkscape:window-height="1057"
     inkscape:window-x="-8"
     inkscape:window-y="-8"
     inkscape:window-maximized="1" />
  <metadata
     id="metadata7">
    <rdf:RDF>
      <cc:Work
         rdf:about="">
        <dc:format>image/svg+xml</dc:format>
        <dc:type
           rdf:resource="http://purl.org/dc/dcmitype/StillImage" />
        <dc:title />
      </cc:Work>
    </rdf:RDF>
  </metadata>
  <g
     inkscape:label="レイヤー 1"
     inkscape:groupmode="layer"
     id="layer1">
    <path
       style="color:#000000;font-style:normal;font-variant:normal;font-weight:normal;font-stretch:normal;font-size:medium;line-height:normal;font-family:sans-serif;text-indent:0;text-align:start;text-decoration:none;text-decoration-line:none;text-decoration-style:solid;text-decoration-color:#000000;letter-spacing:normal;word-spacing:normal;text-transform:none;direction:ltr;block-progression:tb;writing-mode:lr-tb;baseline-shift:baseline;text-anchor:start;white-space:normal;clip-rule:nonzero;display:inline;overflow:visible;visibility:visible;opacity:1;isolation:auto;mix-blend-mode:normal;color-interpolation:sRGB;color-interpolation-filters:linearRGB;solid-color:#000000;solid-opacity:1;fill:none;fill-opacity:1;fill-rule:evenodd;stroke:#000000;stroke-width:5;stroke-linecap:butt;stroke-linejoin:miter;stroke-miterlimit:4;stroke-dasharray:none;stroke-dashoffset:0;stroke-opacity:1;color-rendering:auto;image-rendering:auto;shape-rendering:auto;text-rendering:auto;enable-background:accumulate"
       d="m 288.57227,61.291016 c -19.58584,-1.83e-4 -35.35743,16.901527 -35.35743,37.5 0,20.598474 15.77159,37.500184 35.35743,37.500004 l 0.002,0 0.004,0 c 7.98314,-0.0162 15.64054,-3.0042 21.84571,-8.22461 l 169.91406,80.23828 -60.83984,96.12695 0.0215,-0.0312 c -5.32922,8.14907 -2.94056,19.16211 5.28711,24.36914 8.22767,5.20704 19.20341,2.65211 24.28711,-5.65234 l 71.4082,-112.82617 c 5.60061,-8.85084 2.15614,-20.70816 -7.31445,-25.18164 L 323.66602,95.613281 C 322.11616,76.423059 307.04849,61.303324 288.57422,61.291016 l -0.002,0 z m -75.71485,2.857422 C 193.27159,64.148262 177.5,81.049964 177.5,101.64844 l 0,0.002 c 0.007,7.95512 2.48609,15.6294 6.90625,22.04102 l -127.414062,185.91992 0,0.002 c -6.221872,9.08126 -2.526085,21.71012 7.609374,26.00586 l 84.255858,35.70117 c 8.90184,3.90291 19.35029,-0.24971 23.14258,-9.19922 3.79207,-8.94897 -0.48965,-19.34564 -9.48438,-23.02734 l -0.002,0 L 97.964844,311.74219 216.46094,138.83594 c 18.00137,-1.96394 31.75046,-17.99836 31.7539,-37.1875 0,-20.598477 -15.77159,-37.500179 -35.35742,-37.500002 z m 50.71485,184.285152 c -11.33343,-1.1e-4 -21.5269,6.00608 -28.75196,15.41211 -7.22506,9.40604 -11.60534,22.24431 -11.60547,36.37305 l 0,0.002 0,0.002 c 0.0114,5.90963 0.95298,11.71391 2.5,17.27343 -28.96261,7.22125 -48.13669,15.42969 -48.13672,15.42969 l -2.0332,0.88086 125.53711,422.79102 2.16016,-0.33594 c 0,0 19.6114,-3.18175 46.86914,-12.16211 -1.13602,2.11054 -1.88807,4.46132 -2.06836,6.99414 -0.66715,9.37248 6.25106,17.6432 15.59375,18.64453 l 61.88476,7.52734 -88.7246,65.26758 -0.002,0.002 c -3.35805,2.40686 -5.65508,5.94031 -6.67187,9.90429 -10.68119,1.57468 -19.87479,4.68114 -26.60938,8.98047 -7.10027,4.53277 -11.72004,10.54717 -11.72851,17.36719 l 0,0.002 0,0.002 c 0,8.27402 6.61812,15.17282 16.24804,19.91992 9.62993,4.74709 22.62931,7.58015 36.9668,7.58008 14.33749,7e-5 27.33687,-2.83299 36.9668,-7.58008 9.62992,-4.7471 16.24804,-11.6459 16.24804,-19.91992 l 0,-0.004 0,-0.004 c -0.0155,-5.23908 -2.81451,-10.10988 -7.38281,-14.10742 -3.62781,-3.17455 -8.44424,-5.86421 -14.16992,-8.01953 l 105.13672,-77.33984 c 6.2906,-4.62844 8.24125,-12.11534 6.55664,-18.53711 -1.68461,-6.42178 -7.05996,-11.98906 -14.8125,-12.9336 L 373.03711,735.62305 c 19.21957,-7.74955 40.17158,-17.90856 60.3418,-31.73438 30.37325,-20.81956 58.65462,-49.43272 74.88867,-88.35351 16.23404,-38.9208 20.33208,-88.06836 2.70703,-149.57618 C 485.528,377.15552 434.73593,334.7454 380.44727,317.29883 c 1.26736,-5.06824 2.03852,-10.31697 2.05273,-15.64453 l 0,-0.002 0,-0.004 c 3.1e-4,-14.12913 -4.38038,-26.96856 -11.60547,-36.375 -7.22508,-9.40644 -17.41822,-15.41222 -28.75195,-15.41211 -11.33374,-1.1e-4 -21.52686,6.00567 -28.75196,15.41211 -5.06916,6.59962 -8.6252,14.94853 -10.36328,24.1875 -1.61372,-9.82962 -5.36856,-18.66552 -10.70507,-25.61328 -7.22464,-9.40597 -17.417,-15.41341 -28.75,-15.41407 z m 44.58984,152.78711 0.002,0 c 0.18934,-0.002 0.37904,0.002 0.57032,0.0137 l 0.0957,0.006 0.0937,-0.002 c 21.19835,-0.36751 42.94755,3.83935 60.84961,15.12695 38.55237,28.0627 58.09021,77.20021 57.2832,124.26563 l 0,0.0566 0.002,0.0566 c 1.05827,37.33749 -23.39073,71.70663 -54.98437,90.23633 l -0.35938,0.21094 -0.27343,0.31836 c -2.30789,2.69246 -6.91108,2.47209 -8.65821,-0.66797 -20.73483,-72.39146 -43.60457,-144.3481 -63.78711,-216.88086 l -0.0723,-0.26367 -0.12891,-0.24024 c -1.58403,-2.9764 -0.90012,-5.67297 1.0586,-8.08203 1.95871,-2.40906 5.30303,-4.1215 8.30859,-4.1543 z m 157.9375,283.60938 c -8.33635,0.39231 -15.37988,6.71665 -16.51758,15.13867 -1.21364,8.98415 4.68499,17.44977 13.5332,19.42383 l 91.19141,21.76172 -102.46484,83.32422 c -3.31353,2.62258 -5.4628,6.36849 -6.24414,10.48242 -7.66698,2.24166 -14.05478,5.34562 -18.67578,9.1875 -4.9312,4.09974 -7.98084,9.15748 -7.99415,14.63672 l 0,0.002 0,0.004 c 0,8.27402 6.61812,15.17282 16.24805,19.91992 9.62993,4.74709 22.6293,7.58015 36.9668,7.58008 14.33749,7e-5 27.33686,-2.83299 36.9668,-7.58008 9.6299,-4.7471 16.24804,-11.6459 16.24804,-19.91992 l 0,-0.004 0,-0.002 c -0.0163,-6.25631 -3.9467,-11.88476 -10.11328,-16.26172 -5.09118,-3.61367 -11.86848,-6.45307 -19.77734,-8.40821 l 108.43164,-88.17578 c 11.12546,-9.04968 6.97024,-27.2672 -6.97852,-30.59961 L 471.24023,685.34766 c -0.002,-4.8e-4 -0.004,4.7e-4 -0.006,0 -1.12967,-0.28631 -2.28522,-0.45898 -3.44922,-0.51563 l -0.002,0 c -0.56587,-0.0277 -1.12783,-0.0281 -1.68359,-0.002 z"
       id="path4173"
       class="contour"
       inkscape:connector-curvature="0" />
    <path
       style="fill:#ff0000;fill-rule:evenodd;stroke:#000000;stroke-width:5;stroke-linecap:butt;stroke-linejoin:miter;stroke-opacity:1;fill-opacity:1;stroke-miterlimit:4;stroke-dasharray:none"
       d="M 310.43555 309.19727 C 239.57323 308.74164 178.57227 335.21875 178.57227 335.21875 L 302.85742 753.79102 C 302.85742 753.79102 578.57227 710.93415 508.57227 466.64844 C 472.47852 340.68861 385.86962 309.68228 310.43555 309.19727 z M 308.13477 398.7207 C 308.38415 398.71798 308.63234 398.72412 308.88086 398.73828 C 330.46347 398.36411 352.72514 402.63375 371.17383 414.28906 C 410.56999 442.92139 430.3765 492.85908 429.55664 540.67383 C 430.64684 579.13792 405.60932 614.21064 373.33984 633.13672 C 369.88763 637.16418 363.03164 636.75269 360.49414 631.92383 C 339.74273 559.4457 316.82343 487.35412 296.58789 414.63086 C 292.45759 406.87001 300.40395 398.80507 308.13477 398.7207 z "
       id="path3336" />
    <ellipse
       style="fill:#ffffff;fill-opacity:1;stroke:#000000;stroke-width:5;stroke-miterlimit:4;stroke-dasharray:none;stroke-opacity:1"
       id="path4267"
       cx="263.57141"
       cy="300.21936"
       rx="37.857143"
       ry="49.285713" />
    <ellipse
       style="fill:#000000;fill-opacity:1;stroke:#000000;stroke-width:5;stroke-miterlimit:4;stroke-dasharray:none;stroke-opacity:1"
       id="path4269"
       cx="281.42856"
       cy="308.07651"
       rx="15.714286"
       ry="22.857143" />
    <ellipse
       ry="49.285713"
       rx="37.857143"
       cy="301.64792"
       cx="342.14285"
       id="ellipse4271"
       style="fill:#ffffff;fill-opacity:1;stroke:#000000;stroke-width:5;stroke-miterlimit:4;stroke-dasharray:none;stroke-opacity:1" />
    <ellipse
       ry="22.857143"
       rx="15.714286"
       cy="309.50507"
       cx="360"
       id="ellipse4273"
       style="fill:#000000;fill-opacity:1;stroke:#000000;stroke-width:5;stroke-miterlimit:4;stroke-dasharray:none;stroke-opacity:1" />
    <path
       style="fill:#ffffff;fill-opacity:1;stroke:#000000;stroke-width:5;stroke-miterlimit:4;stroke-dasharray:none;stroke-opacity:1"
       d="M 212.85742 66.648438 A 32.857143 35 0 0 0 180 101.64844 A 32.857143 35 0 0 0 187.40039 123.74609 L 59.054688 311.02539 A 15.0015 15.0015 0 0 0 65.576172 333.31641 L 149.86133 369.03125 A 15.0015 15.0015 0 1 0 161.56641 341.4082 L 94.173828 312.85156 L 214.98438 136.56836 A 32.857143 35 0 0 0 245.71484 101.64844 A 32.857143 35 0 0 0 212.85742 66.648438 z "
       id="path4275" />
    <path
       style="fill:#ffffff;fill-opacity:1;stroke:#000000;stroke-width:5;stroke-miterlimit:4;stroke-dasharray:none;stroke-opacity:1"
       d="M 288.57227 63.791016 A 32.857143 35 0 0 0 255.71484 98.791016 A 32.857143 35 0 0 0 288.57227 133.79102 A 32.857143 35 0 0 0 310.11719 125.1582 L 483.96289 207.25195 L 421.61133 305.76953 A 15.0015 15.0015 0 1 0 446.96094 321.8125 L 518.38867 208.95508 A 15.0015 15.0015 0 0 0 512.11914 187.36914 L 321.37891 97.296875 A 32.857143 35 0 0 0 288.57227 63.791016 z "
       id="ellipse4277" />
    <path
       style="fill:#ffffff;fill-opacity:1;stroke:#000000;stroke-width:5;stroke-miterlimit:4;stroke-dasharray:none;stroke-opacity:1"
       d="M 366.03125 737.34375 A 15.0015 15.0015 0 0 0 363.90234 767.25195 L 432.08008 775.54492 L 338.25391 844.56445 A 15.0015 15.0015 0 0 0 332.14258 854.62305 A 50.714287 25 0 0 0 294.28516 878.79102 A 50.714287 25 0 0 0 345 903.79102 A 50.714287 25 0 0 0 395.71484 878.79102 A 50.714287 25 0 0 0 371.34375 857.46484 L 480.31641 777.30273 A 15.0015 15.0015 0 0 0 473.24023 750.32812 L 367.52539 737.47266 A 15.0015 15.0015 0 0 0 366.03125 737.34375 z "
       id="path4279" />
    <path
       style="fill:#ffffff;fill-opacity:1;stroke:#000000;stroke-width:5;stroke-miterlimit:4;stroke-dasharray:none;stroke-opacity:1"
       d="M 467.66211 687.32812 A 15.0015 15.0015 0 0 0 463.66016 716.95312 L 559.81445 739.89844 L 453.39258 826.43945 A 15.0015 15.0015 0 0 0 447.75781 836.90039 A 50.714287 25 0 0 0 421.42773 858.79102 A 50.714287 25 0 0 0 472.14258 883.79102 A 50.714287 25 0 0 0 522.85742 858.79102 A 50.714287 25 0 0 0 489.91406 835.4082 L 602.32031 744 A 15.0015 15.0015 0 0 0 596.33984 717.77148 L 470.625 687.77148 A 15.0015 15.0015 0 0 0 467.66211 687.32812 z "
       id="ellipse4281" />
  </g>
</svg>
